<svg width="801" height="752" viewBox="0 0 801 752" fill="none" xmlns="http://www.w3.org/2000/svg">
<path fill-rule="evenodd" clip-rule="evenodd" d="M375.08 690.088C285.026 688.718 191.357 783.014 115.307 734.749C40.2372 687.107 68.7931 569.779 48.924 483.096C31.3576 406.459 -16.495 332.46 5.81453 257.068C28.3239 181.001 97.9927 130.132 165.628 88.7103C228.945 49.9328 301.662 41.9463 375.08 30.9181C463.297 17.667 556.852 -23.4028 635.832 18.0805C717.446 60.9475 755.931 156.377 782.214 244.76C807.98 331.406 806.63 422.367 781.914 509.318C756.422 598.998 725.839 704.894 640.66 742.743C556.113 780.31 467.582 691.496 375.08 690.088Z" fill="#37BA83"/>
</svg>
