<svg width="583" height="603" viewBox="0 0 583 603" fill="none" xmlns="http://www.w3.org/2000/svg">
<path fill-rule="evenodd" clip-rule="evenodd" d="M310.001 49.6445C375.547 50.7433 443.722 -24.8687 499.075 13.8329C553.714 52.0355 532.93 146.116 547.391 215.624C560.177 277.076 595.006 336.413 578.768 396.867C562.385 457.862 511.677 498.652 462.449 531.867C416.364 562.961 363.438 569.365 310.001 578.208C245.794 588.834 177.701 621.766 120.216 588.502C60.8137 554.129 32.8029 477.607 13.6731 406.736C-5.08063 337.258 -4.09786 264.32 13.8918 194.597C32.4459 122.686 54.7049 37.7723 116.702 7.42311C178.239 -22.7005 242.675 48.5159 310.001 49.6445Z" fill="#37BA83"/>
</svg>
